<svg width="72" height="72" viewBox="0 0 72 72" fill="none" xmlns="http://www.w3.org/2000/svg">
<path fill-rule="evenodd" clip-rule="evenodd" d="M25.6293 40.7114V18H19.8203V41.1744L19.8248 41.5395C19.955 46.8393 22.9436 49.7056 28.1665 49.7056L28.9952 44.3488L28.796 44.3448C27.0788 44.2746 25.6293 43.28 25.6293 40.7114ZM38.1479 38.8294V27.0796H32.339V40.6812L32.3444 41.0169C32.4985 45.7928 35.9445 49.014 40.7297 49.014C43.0889 49.014 45.3813 48.2645 46.917 46.1482V49.2014L46.9106 49.5222C46.7704 53.0074 44.3349 55.0322 40.8354 55.0322C38.2536 55.0322 36.5939 54.2606 34.435 52.8498L32.3652 57.5453L32.7738 57.8206C35.1132 59.338 37.8641 60.1245 41.0802 60.1245C48.1754 60.1245 52.6862 56.0114 52.726 49.2014V27.0796H46.917V38.7853L46.9102 39.1018C46.7785 42.1093 44.764 43.6131 42.3544 43.6131C39.7059 43.6131 38.1479 41.9157 38.1479 38.8294Z" fill="black"/>
</svg>
