<svg width="72" height="72" viewBox="0 0 72 72" fill="none" xmlns="http://www.w3.org/2000/svg">
<path d="M50.9999 28.848C50.9999 27.5928 49.9875 26.5887 48.722 26.5887H44.391L34.4355 15.2082C33.5074 14.1483 32.045 13.7299 30.6951 14.1204L27.236 15.1524C26.7017 15.3198 26.5329 15.9613 26.9548 16.3518L37.8102 26.5887H21.2458C20.7677 26.5887 20.374 26.9792 20.374 27.4534V29.2943C20.374 30.5495 21.3864 31.5537 22.652 31.5537H25.1831V40.2006C25.1831 46.6718 28.6703 50.5211 34.4918 50.5211C36.2635 50.5211 37.7821 50.3258 39.5257 49.6285V55.4024C39.5257 56.9644 40.8194 58.2475 42.3943 58.2475H44.8972C45.4878 58.2475 45.9659 57.7733 45.9659 57.1875V31.5537H50.1281C50.6062 31.5537 50.9999 31.1632 50.9999 30.689V28.848ZM39.5257 44.2451C38.5133 44.6914 37.0228 44.9424 35.926 44.9424C32.945 44.9424 31.6232 43.4641 31.6232 40.1727V31.5258H39.5257V44.2451Z" fill="#5F259F"/>
</svg>
